<svg width="1440" height="116" viewBox="0 0 1440 116" fill="none" xmlns="http://www.w3.org/2000/svg">
<mask id="path-1-outside-1_11_126" maskUnits="userSpaceOnUse" x="-46" y="-116" width="1532" height="232" fill="black">
<rect fill="white" x="-46" y="-116" width="1532" height="232"/>
<path d="M1368 -111C1430.3 -111 1481 -61.6245 1481 -0.474609C1481 60.6751 1430.3 110.05 1368 110.05C1317.27 110.05 1274.24 77.3151 1260 32.1436C1245.76 77.3151 1202.73 110.05 1152 110.05C1101.27 110.05 1058.24 77.3151 1044 32.1436C1029.76 77.3151 986.725 110.05 936 110.05C885.275 110.05 842.239 77.3151 828 32.1436C813.761 77.3151 770.725 110.05 720 110.05C669.275 110.05 626.239 77.3151 612 32.1436C597.761 77.3151 554.725 110.05 504 110.05C453.275 110.05 410.239 77.3151 396 32.1436C381.761 77.3151 338.725 110.05 288 110.05C237.275 110.05 194.239 77.3151 180 32.1436C165.761 77.3151 122.725 110.05 72 110.05C9.70186 110.05 -40.9998 60.6751 -41 -0.474609C-41 -61.6245 9.70173 -111 72 -111C122.725 -111 165.761 -78.2652 180 -33.0938C194.239 -78.2652 237.275 -111 288 -111C338.725 -111 381.761 -78.2652 396 -33.0938C410.239 -78.2652 453.275 -111 504 -111C554.725 -111 597.761 -78.2652 612 -33.0938C626.239 -78.2652 669.275 -111 720 -111C770.725 -111 813.761 -78.2652 828 -33.0938C842.239 -78.2652 885.275 -111 936 -111C986.725 -111 1029.76 -78.2652 1044 -33.0938C1058.24 -78.2652 1101.27 -111 1152 -111C1202.73 -111 1245.76 -78.2652 1260 -33.0938C1274.24 -78.2652 1317.27 -111 1368 -111Z"/>
</mask>
<path d="M1368 -111C1430.3 -111 1481 -61.6245 1481 -0.474609C1481 60.6751 1430.3 110.05 1368 110.05C1317.27 110.05 1274.24 77.3151 1260 32.1436C1245.76 77.3151 1202.73 110.05 1152 110.05C1101.27 110.05 1058.24 77.3151 1044 32.1436C1029.76 77.3151 986.725 110.05 936 110.05C885.275 110.05 842.239 77.3151 828 32.1436C813.761 77.3151 770.725 110.05 720 110.05C669.275 110.05 626.239 77.3151 612 32.1436C597.761 77.3151 554.725 110.05 504 110.05C453.275 110.05 410.239 77.3151 396 32.1436C381.761 77.3151 338.725 110.05 288 110.05C237.275 110.05 194.239 77.3151 180 32.1436C165.761 77.3151 122.725 110.05 72 110.05C9.70186 110.05 -40.9998 60.6751 -41 -0.474609C-41 -61.6245 9.70173 -111 72 -111C122.725 -111 165.761 -78.2652 180 -33.0938C194.239 -78.2652 237.275 -111 288 -111C338.725 -111 381.761 -78.2652 396 -33.0938C410.239 -78.2652 453.275 -111 504 -111C554.725 -111 597.761 -78.2652 612 -33.0938C626.239 -78.2652 669.275 -111 720 -111C770.725 -111 813.761 -78.2652 828 -33.0938C842.239 -78.2652 885.275 -111 936 -111C986.725 -111 1029.76 -78.2652 1044 -33.0938C1058.24 -78.2652 1101.27 -111 1152 -111C1202.73 -111 1245.76 -78.2652 1260 -33.0938C1274.24 -78.2652 1317.27 -111 1368 -111Z" fill="#F6EECC"/>
<path d="M1481 -0.474609L1486 -0.474594V-0.474609H1481ZM1260 32.1436L1264.77 30.6403L1260 15.5126L1255.23 30.6403L1260 32.1436ZM1044 32.1436L1048.77 30.6403L1044 15.5126L1039.23 30.6403L1044 32.1436ZM828 32.1436L832.769 30.6403L828 15.5126L823.231 30.6403L828 32.1436ZM612 32.1436L616.769 30.6403L612 15.5126L607.231 30.6403L612 32.1436ZM396 32.1436L400.769 30.6403L396 15.5126L391.231 30.6403L396 32.1436ZM180 32.1436L184.769 30.6403L180 15.5126L175.231 30.6403L180 32.1436ZM-41 -0.474609H-46V-0.474594L-41 -0.474609ZM180 -33.0938L175.231 -31.5905L180 -16.463L184.769 -31.5905L180 -33.0938ZM396 -33.0938L391.231 -31.5905L396 -16.463L400.769 -31.5905L396 -33.0938ZM612 -33.0938L607.231 -31.5905L612 -16.463L616.769 -31.5905L612 -33.0938ZM828 -33.0938L823.231 -31.5905L828 -16.463L832.769 -31.5905L828 -33.0938ZM1044 -33.0938L1039.23 -31.5905L1044 -16.463L1048.77 -31.5905L1044 -33.0938ZM1260 -33.0938L1255.23 -31.5905L1260 -16.463L1264.77 -31.5905L1260 -33.0938ZM1368 -111V-106C1427.65 -106 1476 -58.753 1476 -0.474609H1481H1486C1486 -64.496 1432.95 -116 1368 -116V-111ZM1481 -0.474609L1476 -0.474625C1476 57.8036 1427.65 105.05 1368 105.05V110.05V115.05C1432.95 115.05 1486 63.5467 1486 -0.474594L1481 -0.474609ZM1368 110.05V105.05C1319.45 105.05 1278.35 73.7267 1264.77 30.6403L1260 32.1436L1255.23 33.6468C1270.13 80.9034 1315.1 115.05 1368 115.05V110.05ZM1260 32.1436L1255.23 30.6403C1241.65 73.7267 1200.55 105.05 1152 105.05V110.05V115.05C1204.9 115.05 1249.87 80.9034 1264.77 33.6468L1260 32.1436ZM1152 110.05V105.05C1103.45 105.05 1062.35 73.7267 1048.77 30.6403L1044 32.1436L1039.23 33.6468C1054.13 80.9034 1099.1 115.05 1152 115.05V110.05ZM1044 32.1436L1039.23 30.6403C1025.65 73.7267 984.547 105.05 936 105.05V110.05V115.05C988.904 115.05 1033.87 80.9034 1048.77 33.6468L1044 32.1436ZM936 110.05V105.05C887.453 105.05 846.351 73.7267 832.769 30.6403L828 32.1436L823.231 33.6468C838.128 80.9034 883.096 115.05 936 115.05V110.05ZM828 32.1436L823.231 30.6403C809.649 73.7267 768.547 105.05 720 105.05V110.05V115.05C772.904 115.05 817.872 80.9034 832.769 33.6468L828 32.1436ZM720 110.05V105.05C671.453 105.05 630.351 73.7267 616.769 30.6403L612 32.1436L607.231 33.6468C622.128 80.9034 667.096 115.05 720 115.05V110.05ZM612 32.1436L607.231 30.6403C593.649 73.7267 552.547 105.05 504 105.05V110.05V115.05C556.904 115.05 601.872 80.9034 616.769 33.6468L612 32.1436ZM504 110.05V105.05C455.453 105.05 414.351 73.7267 400.769 30.6403L396 32.1436L391.231 33.6468C406.128 80.9034 451.096 115.05 504 115.05V110.05ZM396 32.1436L391.231 30.6403C377.649 73.7267 336.547 105.05 288 105.05V110.05V115.05C340.904 115.05 385.872 80.9034 400.769 33.6468L396 32.1436ZM288 110.05V105.05C239.453 105.05 198.351 73.7267 184.769 30.6403L180 32.1436L175.231 33.6468C190.128 80.9034 235.096 115.05 288 115.05V110.05ZM180 32.1436L175.231 30.6403C161.649 73.7267 120.547 105.05 72 105.05V110.05V115.05C124.904 115.05 169.872 80.9034 184.769 33.6468L180 32.1436ZM72 110.05V105.05C12.3519 105.05 -35.9998 57.8036 -36 -0.474625L-41 -0.474609L-46 -0.474594C-45.9998 63.5467 7.05186 115.05 72 115.05V110.05ZM-41 -0.474609H-36C-36 -58.753 12.3518 -106 72 -106V-111V-116C7.05169 -116 -46 -64.496 -46 -0.474609H-41ZM72 -111V-106C120.547 -106 161.649 -74.6768 175.231 -31.5905L180 -33.0938L184.769 -34.597C169.872 -81.8535 124.903 -116 72 -116V-111ZM180 -33.0938L184.769 -31.5905C198.351 -74.6768 239.453 -106 288 -106V-111V-116C235.097 -116 190.128 -81.8535 175.231 -34.597L180 -33.0938ZM288 -111V-106C336.547 -106 377.649 -74.6768 391.231 -31.5905L396 -33.0938L400.769 -34.597C385.872 -81.8535 340.903 -116 288 -116V-111ZM396 -33.0938L400.769 -31.5905C414.351 -74.6768 455.453 -106 504 -106V-111V-116C451.097 -116 406.128 -81.8535 391.231 -34.597L396 -33.0938ZM504 -111V-106C552.547 -106 593.649 -74.6768 607.231 -31.5905L612 -33.0938L616.769 -34.597C601.872 -81.8535 556.903 -116 504 -116V-111ZM612 -33.0938L616.769 -31.5905C630.351 -74.6768 671.453 -106 720 -106V-111V-116C667.097 -116 622.128 -81.8535 607.231 -34.597L612 -33.0938ZM720 -111V-106C768.547 -106 809.649 -74.6768 823.231 -31.5905L828 -33.0938L832.769 -34.597C817.872 -81.8535 772.903 -116 720 -116V-111ZM828 -33.0938L832.769 -31.5905C846.351 -74.6768 887.453 -106 936 -106V-111V-116C883.097 -116 838.128 -81.8535 823.231 -34.597L828 -33.0938ZM936 -111V-106C984.547 -106 1025.65 -74.6768 1039.23 -31.5905L1044 -33.0938L1048.77 -34.597C1033.87 -81.8535 988.903 -116 936 -116V-111ZM1044 -33.0938L1048.77 -31.5905C1062.35 -74.6768 1103.45 -106 1152 -106V-111V-116C1099.1 -116 1054.13 -81.8535 1039.23 -34.597L1044 -33.0938ZM1152 -111V-106C1200.55 -106 1241.65 -74.6768 1255.23 -31.5905L1260 -33.0938L1264.77 -34.597C1249.87 -81.8535 1204.9 -116 1152 -116V-111ZM1260 -33.0938L1264.77 -31.5905C1278.35 -74.6768 1319.45 -106 1368 -106V-111V-116C1315.1 -116 1270.13 -81.8535 1255.23 -34.597L1260 -33.0938Z" fill="black" mask="url(#path-1-outside-1_11_126)"/>
</svg>
