<svg width="809" height="866" viewBox="0 0 809 866" fill="none" xmlns="http://www.w3.org/2000/svg">
<path d="M355.166 47.5317C378.619 -15.4371 467.685 -15.4371 491.138 47.5317C507.441 91.3024 560.575 108.275 599.513 82.4774C655.316 45.5069 727.699 97.3883 709.503 161.806C696.82 206.707 729.689 251.67 776.308 253.544C843.173 256.232 871.047 340.755 818.421 382.091C781.732 410.91 781.732 466.482 818.421 495.301C871.047 536.637 843.173 621.159 776.308 623.848C729.689 625.722 696.82 670.685 709.503 715.586C727.699 780.004 655.316 831.885 599.513 794.915C560.575 769.117 507.441 786.09 491.138 829.86C467.685 892.829 378.619 892.829 355.166 829.86C338.863 786.09 285.729 769.117 246.791 794.915C190.988 831.885 118.605 780.004 136.801 715.586C149.484 670.685 116.615 625.722 69.9958 623.848C3.13098 621.159 -24.7426 536.637 27.883 495.301C64.5723 466.482 64.5723 410.91 27.883 382.091C-24.7426 340.755 3.131 256.232 69.9959 253.544C116.615 251.67 149.484 206.707 136.801 161.806C118.605 97.3883 190.988 45.5068 246.791 82.4774C285.729 108.275 338.863 91.3024 355.166 47.5317Z" fill="#FF9C05"/>
</svg>
