<svg width="1440" height="374" viewBox="0 0 1440 374" fill="none" xmlns="http://www.w3.org/2000/svg">
<path d="M40 0C272.291 0 466.98 123.027 518.597 288.471C570.855 246.907 637.46 222 710 222C771.434 222 828.611 239.864 876.422 270.581C900.592 224.341 933.164 196 969 196C1007.86 196 1042.88 229.324 1067.51 282.659C1122.55 177.288 1268.1 102 1439 102C1657.15 102 1834 224.674 1834 376C1834 527.326 1657.15 650 1439 650C1296.3 650 1171.28 597.508 1101.86 518.844C1090.51 646.866 1035.34 744 969 744C953.941 744 939.458 738.994 925.932 729.76C870.843 784.249 794.443 818 710 818C575.471 818 461.352 732.34 421.308 613.627C331.087 698.079 193.784 752 40 752C-231.724 752 -452 583.659 -452 376C-452 168.341 -231.724 0 40 0Z" fill="#F6EECC"/>
</svg>
