<svg width="1440" height="111" viewBox="0 0 1440 111" fill="none" xmlns="http://www.w3.org/2000/svg">
<path d="M1368 -111C1430.3 -111 1481 -61.6245 1481 -0.474609C1481 60.6751 1430.3 110.05 1368 110.05C1317.27 110.05 1274.24 77.3151 1260 32.1436C1245.76 77.3151 1202.73 110.05 1152 110.05C1101.27 110.05 1058.24 77.3151 1044 32.1436C1029.76 77.3151 986.725 110.05 936 110.05C885.275 110.05 842.239 77.3151 828 32.1436C813.761 77.3151 770.725 110.05 720 110.05C669.275 110.05 626.239 77.3151 612 32.1436C597.761 77.3151 554.725 110.05 504 110.05C453.275 110.05 410.239 77.3151 396 32.1436C381.761 77.3151 338.725 110.05 288 110.05C237.275 110.05 194.239 77.3151 180 32.1436C165.761 77.3151 122.725 110.05 72 110.05C9.70187 110.05 -40.9998 60.6751 -41 -0.474609C-41 -61.6245 9.70173 -111 72 -111C122.725 -111 165.761 -78.2652 180 -33.0938C194.239 -78.2652 237.275 -111 288 -111C338.725 -111 381.761 -78.2652 396 -33.0938C410.239 -78.2652 453.275 -111 504 -111C554.725 -111 597.76 -78.2652 612 -33.0938C626.239 -78.2652 669.275 -111 720 -111C770.725 -111 813.76 -78.2652 828 -33.0938C842.239 -78.2652 885.275 -111 936 -111C986.725 -111 1029.76 -78.2652 1044 -33.0938C1058.24 -78.2652 1101.27 -111 1152 -111C1202.72 -111 1245.76 -78.2652 1260 -33.0938C1274.24 -78.2652 1317.27 -111 1368 -111Z" fill="#F6EECC"/>
</svg>
