<svg width="286" height="399" viewBox="0 0 286 399" fill="none" xmlns="http://www.w3.org/2000/svg">
<path d="M176.794 63.3791C184.937 41.5149 215.863 41.5149 224.006 63.3791C229.667 78.5772 248.116 84.4703 261.637 75.513C281.013 62.676 306.146 80.6904 299.827 103.058C295.423 118.648 306.836 134.26 323.024 134.911C346.241 135.845 355.919 165.193 337.646 179.546C324.907 189.552 324.907 208.848 337.646 218.854C355.919 233.207 346.241 262.555 323.024 263.489C306.836 264.14 295.423 279.752 299.827 295.342C306.146 317.71 281.013 335.724 261.636 322.887C248.116 313.93 229.667 319.823 224.006 335.021C215.863 356.885 184.937 356.885 176.794 335.021C171.133 319.823 152.684 313.93 139.163 322.887C119.787 335.724 94.6544 317.71 100.973 295.342C105.376 279.752 93.9636 264.14 77.7763 263.489C54.5594 262.555 44.881 233.207 63.1538 218.854C75.8931 208.848 75.8932 189.552 63.1538 179.546C44.8811 165.193 54.5594 135.845 77.7764 134.911C93.9636 134.26 105.376 118.648 100.973 103.058C94.6544 80.6904 119.787 62.676 139.163 75.513C152.684 84.4703 171.133 78.5772 176.794 63.3791Z" fill="#FF9C05"/>
<circle cx="118.774" cy="241.307" r="14.5" transform="rotate(-33.317 118.774 241.307)" fill="#34597C" stroke="#34597C"/>
<circle cx="207.737" cy="209.158" r="14.5" transform="rotate(-33.317 207.737 209.158)" fill="#34597C" stroke="#34597C"/>
<path d="M151 262C168.993 266.415 180.434 262.658 203 246" stroke="#34597C" stroke-width="10" stroke-linecap="round"/>
</svg>
