<svg width="352" height="380" viewBox="0 0 352 380" fill="none" xmlns="http://www.w3.org/2000/svg">
<path d="M127.794 44.3791C135.937 22.5149 166.863 22.5149 175.006 44.3791C180.667 59.5772 199.116 65.4703 212.637 56.513C232.013 43.676 257.146 61.6904 250.827 84.0578C246.423 99.6481 257.836 115.26 274.024 115.911C297.241 116.845 306.919 146.193 288.646 160.546C275.907 170.552 275.907 189.848 288.646 199.854C306.919 214.207 297.241 243.555 274.024 244.489C257.836 245.14 246.423 260.752 250.827 276.342C257.146 298.71 232.013 316.724 212.636 303.887C199.116 294.93 180.667 300.823 175.006 316.021C166.863 337.885 135.937 337.885 127.794 316.021C122.133 300.823 103.684 294.93 90.1635 303.887C70.7874 316.724 45.6544 298.71 51.9726 276.342C56.3765 260.752 44.9636 245.14 28.7763 244.489C5.55939 243.555 -4.11895 214.207 14.1538 199.854C26.8931 189.848 26.8932 170.552 14.1538 160.546C-4.11895 146.193 5.55938 116.845 28.7764 115.911C44.9636 115.26 56.3765 99.6481 51.9726 84.0578C45.6544 61.6904 70.7874 43.676 90.1635 56.513C103.684 65.4703 122.133 59.5772 127.794 44.3791Z" fill="#FF9C05"/>
<circle cx="105" cy="124" r="15" fill="#02080B"/>
<circle cx="105" cy="124" r="14.5" fill="#34597C" stroke="#34597C"/>
<circle cx="197" cy="146" r="14.5" fill="#34597C" stroke="#34597C"/>
<path d="M90 161.088C111.676 185.534 131.573 191.275 179.429 188.793" stroke="#34597C" stroke-width="10" stroke-linecap="round"/>
</svg>
