<svg width="1440" height="1629" viewBox="0 0 1440 1629" fill="none" xmlns="http://www.w3.org/2000/svg">
<ellipse cx="720" cy="703.5" rx="720" ry="703.5" fill="#F6EECC"/>
<rect y="680" width="1440" height="1117" fill="#F6EECC"/>
<rect x="69" y="594" width="1303" height="733" fill="#D9D9D9"/>
<path d="M298.137 452.9C295.337 452.9 293.037 452.033 291.237 450.3C289.437 448.5 288.537 446.133 288.537 443.2C288.537 440.333 289.437 437.633 291.237 435.1C293.037 432.5 295.503 430.167 298.637 428.1C301.77 426.033 305.337 424.367 309.337 423.1C310.203 422.833 310.637 422.267 310.637 421.4V412.3C310.637 409.1 310.137 406.833 309.137 405.5C308.137 404.1 306.77 403.4 305.037 403.4C303.37 403.4 301.837 404.167 300.437 405.7C299.103 407.167 298.137 409.667 297.537 413.2C297.203 415.333 296.47 416.9 295.337 417.9C294.27 418.833 293.17 419.3 292.037 419.3C290.17 419.3 289.237 418.367 289.237 416.5C289.237 414.567 289.77 412.667 290.837 410.8C291.97 408.867 293.437 407.133 295.237 405.6C297.037 404 299.003 402.733 301.137 401.8C303.27 400.867 305.403 400.4 307.537 400.4C314.137 400.4 317.437 404.233 317.437 411.9V442.5C317.437 445.3 318.137 446.7 319.537 446.7C320.403 446.7 321.203 446.133 321.937 445C322.67 443.8 323.037 441.8 323.037 439C323.037 437.933 323.47 437.4 324.337 437.4C325.137 437.4 325.537 437.967 325.537 439.1C325.537 443.967 324.67 447.5 322.937 449.7C321.27 451.833 319.37 452.9 317.237 452.9C315.637 452.9 314.37 452.267 313.437 451C312.503 449.667 311.87 448.1 311.537 446.3C311.47 445.633 311.17 445.3 310.637 445.3C310.17 445.233 309.703 445.533 309.237 446.2C307.637 448.4 306.003 450.067 304.337 451.2C302.67 452.333 300.603 452.9 298.137 452.9ZM300.837 448.3C302.57 448.3 304.17 447.7 305.637 446.5C307.103 445.233 308.303 443.567 309.237 441.5C310.17 439.433 310.637 437.1 310.637 434.5V427.2C310.637 425.933 309.937 425.567 308.537 426.1C304.47 427.567 301.303 429.6 299.037 432.2C296.837 434.733 295.737 437.8 295.737 441.4C295.737 446 297.437 448.3 300.837 448.3ZM343.07 452C342.27 452 341.87 451.633 341.87 450.9C341.87 450.233 342.237 449.833 342.97 449.7L344.37 449.5C345.77 449.3 346.804 448.9 347.47 448.3C348.137 447.7 348.47 446.7 348.47 445.3V388C348.47 386.8 348.27 385.967 347.87 385.5C347.537 385.033 346.904 384.767 345.97 384.7L343.67 384.4C342.937 384.267 342.57 383.867 342.57 383.2C342.57 382.533 342.937 382.133 343.67 382C345.537 381.6 347.137 381.133 348.47 380.6C349.804 380.067 350.904 379.533 351.77 379C352.837 378.333 353.637 378 354.17 378C354.904 378 355.27 378.533 355.27 379.6V445.3C355.27 446.7 355.47 447.7 355.87 448.3C356.337 448.833 357.27 449.2 358.67 449.4L360.97 449.7C361.704 449.833 362.07 450.233 362.07 450.9C362.07 451.633 361.67 452 360.87 452H343.07ZM373.443 391.5C372.043 391.5 370.843 391 369.843 390C368.91 389 368.443 387.733 368.443 386.2C368.443 384.667 368.91 383.433 369.843 382.5C370.843 381.5 372.043 381 373.443 381C374.843 381 376.01 381.5 376.943 382.5C377.876 383.433 378.343 384.667 378.343 386.2C378.343 387.733 377.876 389 376.943 390C376.01 391 374.843 391.5 373.443 391.5ZM365.043 452C364.043 452 363.543 451.633 363.543 450.9C363.543 450.3 363.976 449.9 364.843 449.7L366.043 449.5C367.71 449.233 368.776 448.833 369.243 448.3C369.71 447.7 369.943 446.7 369.943 445.3V411.7C369.943 410.5 369.743 409.7 369.343 409.3C369.01 408.833 368.376 408.533 367.443 408.4L365.343 408.1C364.476 408.033 364.043 407.667 364.043 407C364.043 406.467 364.576 406.1 365.643 405.9C367.71 405.567 369.376 405.033 370.643 404.3C371.91 403.567 373.143 402.667 374.343 401.6C374.943 401 375.443 400.7 375.843 400.7C376.443 400.7 376.743 401.1 376.743 401.9V445.3C376.743 446.7 376.943 447.7 377.343 448.3C377.743 448.9 378.51 449.267 379.643 449.4L382.143 449.7C382.876 449.833 383.243 450.2 383.243 450.8C383.243 451.6 382.743 452 381.743 452H365.043ZM398.009 452.9C395.675 452.9 393.742 452.1 392.209 450.5C390.742 448.833 390.009 446.133 390.009 442.4V405C390.009 404.2 389.609 403.8 388.809 403.8H385.909C384.842 403.8 384.309 403.4 384.309 402.6C384.309 402.067 384.609 401.6 385.209 401.2C387.409 399.667 389.175 398.033 390.509 396.3C391.842 394.5 393.009 392.067 394.009 389C394.475 387.6 395.042 386.9 395.709 386.9C396.442 386.9 396.809 387.433 396.809 388.5V399.6C396.809 400.533 397.275 401 398.209 401H404.709C405.775 401 406.309 401.467 406.309 402.4C406.309 403.333 405.775 403.8 404.709 403.8H398.209C397.275 403.8 396.809 404.267 396.809 405.2V442.5C396.809 443.967 397.042 445.133 397.509 446C397.975 446.8 398.842 447.2 400.109 447.2C401.509 447.2 402.642 446.5 403.509 445.1C404.442 443.7 405.042 441.433 405.309 438.3C405.442 437.367 405.875 436.9 406.609 436.9C407.409 436.9 407.809 437.4 407.809 438.4C407.609 443.533 406.542 447.233 404.609 449.5C402.742 451.767 400.542 452.9 398.009 452.9ZM421.13 452.9C418.796 452.9 416.863 452.1 415.33 450.5C413.863 448.833 413.13 446.133 413.13 442.4V405C413.13 404.2 412.73 403.8 411.93 403.8H409.03C407.963 403.8 407.43 403.4 407.43 402.6C407.43 402.067 407.73 401.6 408.33 401.2C410.53 399.667 412.296 398.033 413.63 396.3C414.963 394.5 416.13 392.067 417.13 389C417.596 387.6 418.163 386.9 418.83 386.9C419.563 386.9 419.93 387.433 419.93 388.5V399.6C419.93 400.533 420.396 401 421.33 401H427.83C428.896 401 429.43 401.467 429.43 402.4C429.43 403.333 428.896 403.8 427.83 403.8H421.33C420.396 403.8 419.93 404.267 419.93 405.2V442.5C419.93 443.967 420.163 445.133 420.63 446C421.096 446.8 421.963 447.2 423.23 447.2C424.63 447.2 425.763 446.5 426.63 445.1C427.563 443.7 428.163 441.433 428.43 438.3C428.563 437.367 428.996 436.9 429.73 436.9C430.53 436.9 430.93 437.4 430.93 438.4C430.73 443.533 429.663 447.233 427.73 449.5C425.863 451.767 423.663 452.9 421.13 452.9ZM433.309 452C432.509 452 432.109 451.633 432.109 450.9C432.109 450.233 432.475 449.833 433.209 449.7L434.609 449.5C436.009 449.3 437.042 448.9 437.709 448.3C438.375 447.7 438.709 446.7 438.709 445.3V388C438.709 386.8 438.509 385.967 438.109 385.5C437.775 385.033 437.142 384.767 436.209 384.7L433.909 384.4C433.175 384.267 432.809 383.867 432.809 383.2C432.809 382.533 433.175 382.133 433.909 382C435.775 381.6 437.375 381.133 438.709 380.6C440.042 380.067 441.142 379.533 442.009 379C443.075 378.333 443.875 378 444.409 378C445.142 378 445.509 378.533 445.509 379.6V445.3C445.509 446.7 445.709 447.7 446.109 448.3C446.575 448.833 447.509 449.2 448.909 449.4L451.209 449.7C451.942 449.833 452.309 450.233 452.309 450.9C452.309 451.633 451.909 452 451.109 452H433.309ZM471.481 452.9C468.281 452.9 465.415 451.833 462.881 449.7C460.348 447.567 458.315 444.567 456.781 440.7C455.315 436.767 454.581 432.233 454.581 427.1C454.581 421.833 455.348 417.2 456.881 413.2C458.415 409.2 460.515 406.067 463.181 403.8C465.848 401.533 468.815 400.4 472.081 400.4C476.015 400.4 479.181 402.033 481.581 405.3C484.048 408.5 485.281 413.733 485.281 421C485.281 423.2 484.448 424.3 482.781 424.3H463.781C462.448 424.3 461.781 425.067 461.781 426.6C461.781 433.667 462.815 438.967 464.881 442.5C466.948 446.033 469.581 447.8 472.781 447.8C475.315 447.8 477.381 446.9 478.981 445.1C480.581 443.3 481.881 440.267 482.881 436C483.081 435.267 483.515 434.9 484.181 434.9C484.981 434.9 485.281 435.567 485.081 436.9C484.015 442.833 482.315 447 479.981 449.4C477.648 451.733 474.815 452.9 471.481 452.9ZM463.481 421.8H473.581C476.781 421.8 478.381 420.133 478.381 416.8C478.381 412.467 477.848 409.067 476.781 406.6C475.715 404.133 474.115 402.9 471.981 402.9C469.381 402.9 467.181 404.4 465.381 407.4C463.648 410.4 462.515 414.667 461.981 420.2C461.848 421.267 462.348 421.8 463.481 421.8ZM505.82 452C504.82 452 504.32 451.633 504.32 450.9C504.32 450.3 504.754 449.9 505.62 449.7L506.82 449.5C508.22 449.233 509.12 448.833 509.52 448.3C509.987 447.7 510.22 446.7 510.22 445.3V411.7C510.22 410.5 510.02 409.7 509.62 409.3C509.287 408.833 508.654 408.533 507.72 408.4L505.62 408.1C504.754 408.033 504.32 407.667 504.32 407C504.32 406.467 504.854 406.1 505.92 405.9C507.987 405.567 509.554 405.033 510.62 404.3C511.754 403.567 512.92 402.667 514.12 401.6C514.72 401 515.22 400.7 515.62 400.7C516.22 400.7 516.52 401.1 516.52 401.9V406.4C516.52 406.867 516.72 407.233 517.12 407.5C517.52 407.7 517.954 407.567 518.42 407.1C521.154 404.5 523.52 402.733 525.52 401.8C527.587 400.867 529.654 400.4 531.72 400.4C533.654 400.4 535.354 400.933 536.82 402C538.354 403 539.487 404.533 540.22 406.6C540.42 407.133 540.754 407.467 541.22 407.6C541.754 407.667 542.254 407.467 542.72 407C545.454 404.467 547.82 402.733 549.82 401.8C551.82 400.867 553.854 400.4 555.92 400.4C558.72 400.4 560.987 401.467 562.72 403.6C564.52 405.667 565.42 408.733 565.42 412.8V445.3C565.42 446.7 565.62 447.7 566.02 448.3C566.487 448.833 567.42 449.2 568.82 449.4L571.02 449.7C571.754 449.833 572.12 450.233 572.12 450.9C572.12 451.633 571.72 452 570.92 452H553.82C552.887 452 552.42 451.633 552.42 450.9C552.42 450.233 552.787 449.833 553.52 449.7L554.92 449.5C556.454 449.3 557.454 448.9 557.92 448.3C558.387 447.7 558.62 446.7 558.62 445.3V413.9C558.62 410.633 558.02 408.333 556.82 407C555.687 405.667 554.12 405 552.12 405C550.12 405 548.287 405.633 546.62 406.9C545.02 408.1 543.72 409.733 542.72 411.8C541.72 413.8 541.22 416.033 541.22 418.5V445.3C541.22 446.7 541.454 447.7 541.92 448.3C542.387 448.833 543.354 449.2 544.82 449.4L547.02 449.7C547.754 449.833 548.12 450.233 548.12 450.9C548.12 451.633 547.72 452 546.92 452H529.92C528.987 452 528.52 451.633 528.52 450.9C528.52 450.233 528.887 449.833 529.62 449.7L531.02 449.5C532.42 449.3 533.32 448.9 533.72 448.3C534.187 447.7 534.42 446.7 534.42 445.3V413.9C534.42 410.633 533.82 408.333 532.62 407C531.487 405.667 529.92 405 527.92 405C525.92 405 524.087 405.633 522.42 406.9C520.82 408.1 519.52 409.733 518.52 411.8C517.52 413.8 517.02 416.033 517.02 418.5V445.3C517.02 446.7 517.22 447.7 517.62 448.3C518.087 448.9 519.02 449.267 520.42 449.4L523.12 449.7C523.854 449.833 524.22 450.2 524.22 450.8C524.22 451.6 523.72 452 522.72 452H505.82ZM591.43 452.9C588.23 452.9 585.364 451.833 582.83 449.7C580.297 447.567 578.264 444.567 576.73 440.7C575.264 436.767 574.53 432.233 574.53 427.1C574.53 421.833 575.297 417.2 576.83 413.2C578.364 409.2 580.464 406.067 583.13 403.8C585.797 401.533 588.764 400.4 592.03 400.4C595.964 400.4 599.13 402.033 601.53 405.3C603.997 408.5 605.23 413.733 605.23 421C605.23 423.2 604.397 424.3 602.73 424.3H583.73C582.397 424.3 581.73 425.067 581.73 426.6C581.73 433.667 582.764 438.967 584.83 442.5C586.897 446.033 589.53 447.8 592.73 447.8C595.264 447.8 597.33 446.9 598.93 445.1C600.53 443.3 601.83 440.267 602.83 436C603.03 435.267 603.464 434.9 604.13 434.9C604.93 434.9 605.23 435.567 605.03 436.9C603.964 442.833 602.264 447 599.93 449.4C597.597 451.733 594.764 452.9 591.43 452.9ZM583.43 421.8H593.53C596.73 421.8 598.33 420.133 598.33 416.8C598.33 412.467 597.797 409.067 596.73 406.6C595.664 404.133 594.064 402.9 591.93 402.9C589.33 402.9 587.13 404.4 585.33 407.4C583.597 410.4 582.464 414.667 581.93 420.2C581.797 421.267 582.297 421.8 583.43 421.8ZM619.877 452.9C618.344 452.9 616.711 452.7 614.977 452.3C613.244 451.967 611.844 451.533 610.777 451C610.177 450.667 609.877 450.1 609.877 449.3L609.577 438.1C609.577 436.967 610.011 436.4 610.877 436.4C611.611 436.4 612.111 436.933 612.377 438C613.511 442.733 614.877 445.967 616.477 447.7C618.144 449.433 620.144 450.3 622.477 450.3C624.411 450.3 626.011 449.567 627.277 448.1C628.544 446.567 629.177 444.467 629.177 441.8C629.177 439.133 628.444 436.767 626.977 434.7C625.511 432.633 623.044 430.367 619.577 427.9C616.111 425.567 613.577 423.233 611.977 420.9C610.377 418.5 609.577 415.9 609.577 413.1C609.577 409.3 610.911 406.233 613.577 403.9C616.244 401.567 619.777 400.4 624.177 400.4C625.511 400.4 626.811 400.567 628.077 400.9C629.344 401.167 630.477 401.633 631.477 402.3C632.077 402.7 632.377 403.233 632.377 403.9L632.577 414.9C632.577 415.9 632.177 416.4 631.377 416.4C630.911 416.4 630.577 416.267 630.377 416C630.177 415.667 630.011 415.267 629.877 414.8C628.544 410.467 627.211 407.467 625.877 405.8C624.544 404.067 622.911 403.2 620.977 403.2C619.244 403.2 617.811 403.8 616.677 405C615.544 406.2 614.977 407.7 614.977 409.5C614.977 411.833 615.677 413.867 617.077 415.6C618.477 417.333 621.011 419.467 624.677 422C628.011 424.4 630.511 427 632.177 429.8C633.911 432.533 634.777 435.533 634.777 438.8C634.777 443.067 633.411 446.5 630.677 449.1C627.944 451.633 624.344 452.9 619.877 452.9ZM649.639 452.9C648.106 452.9 646.472 452.7 644.739 452.3C643.006 451.967 641.606 451.533 640.539 451C639.939 450.667 639.639 450.1 639.639 449.3L639.339 438.1C639.339 436.967 639.772 436.4 640.639 436.4C641.372 436.4 641.872 436.933 642.139 438C643.272 442.733 644.639 445.967 646.239 447.7C647.906 449.433 649.906 450.3 652.239 450.3C654.172 450.3 655.772 449.567 657.039 448.1C658.306 446.567 658.939 444.467 658.939 441.8C658.939 439.133 658.206 436.767 656.739 434.7C655.272 432.633 652.806 430.367 649.339 427.9C645.872 425.567 643.339 423.233 641.739 420.9C640.139 418.5 639.339 415.9 639.339 413.1C639.339 409.3 640.672 406.233 643.339 403.9C646.006 401.567 649.539 400.4 653.939 400.4C655.272 400.4 656.572 400.567 657.839 400.9C659.106 401.167 660.239 401.633 661.239 402.3C661.839 402.7 662.139 403.233 662.139 403.9L662.339 414.9C662.339 415.9 661.939 416.4 661.139 416.4C660.672 416.4 660.339 416.267 660.139 416C659.939 415.667 659.772 415.267 659.639 414.8C658.306 410.467 656.972 407.467 655.639 405.8C654.306 404.067 652.672 403.2 650.739 403.2C649.006 403.2 647.572 403.8 646.439 405C645.306 406.2 644.739 407.7 644.739 409.5C644.739 411.833 645.439 413.867 646.839 415.6C648.239 417.333 650.772 419.467 654.439 422C657.772 424.4 660.272 427 661.939 429.8C663.672 432.533 664.539 435.533 664.539 438.8C664.539 443.067 663.172 446.5 660.439 449.1C657.706 451.633 654.106 452.9 649.639 452.9ZM678.301 452.9C675.501 452.9 673.201 452.033 671.401 450.3C669.601 448.5 668.701 446.133 668.701 443.2C668.701 440.333 669.601 437.633 671.401 435.1C673.201 432.5 675.667 430.167 678.801 428.1C681.934 426.033 685.501 424.367 689.501 423.1C690.367 422.833 690.801 422.267 690.801 421.4V412.3C690.801 409.1 690.301 406.833 689.301 405.5C688.301 404.1 686.934 403.4 685.201 403.4C683.534 403.4 682.001 404.167 680.601 405.7C679.267 407.167 678.301 409.667 677.701 413.2C677.367 415.333 676.634 416.9 675.501 417.9C674.434 418.833 673.334 419.3 672.201 419.3C670.334 419.3 669.401 418.367 669.401 416.5C669.401 414.567 669.934 412.667 671.001 410.8C672.134 408.867 673.601 407.133 675.401 405.6C677.201 404 679.167 402.733 681.301 401.8C683.434 400.867 685.567 400.4 687.701 400.4C694.301 400.4 697.601 404.233 697.601 411.9V442.5C697.601 445.3 698.301 446.7 699.701 446.7C700.567 446.7 701.367 446.133 702.101 445C702.834 443.8 703.201 441.8 703.201 439C703.201 437.933 703.634 437.4 704.501 437.4C705.301 437.4 705.701 437.967 705.701 439.1C705.701 443.967 704.834 447.5 703.101 449.7C701.434 451.833 699.534 452.9 697.401 452.9C695.801 452.9 694.534 452.267 693.601 451C692.667 449.667 692.034 448.1 691.701 446.3C691.634 445.633 691.334 445.3 690.801 445.3C690.334 445.233 689.867 445.533 689.401 446.2C687.801 448.4 686.167 450.067 684.501 451.2C682.834 452.333 680.767 452.9 678.301 452.9ZM681.001 448.3C682.734 448.3 684.334 447.7 685.801 446.5C687.267 445.233 688.467 443.567 689.401 441.5C690.334 439.433 690.801 437.1 690.801 434.5V427.2C690.801 425.933 690.101 425.567 688.701 426.1C684.634 427.567 681.467 429.6 679.201 432.2C677.001 434.733 675.901 437.8 675.901 441.4C675.901 446 677.601 448.3 681.001 448.3ZM722.066 473.5C716.999 473.5 712.999 472.467 710.066 470.4C707.132 468.4 705.666 465.967 705.666 463.1C705.666 461.9 705.832 460.8 706.166 459.8C706.499 458.867 707.199 457.767 708.266 456.5C709.399 455.233 711.099 453.6 713.366 451.6C714.166 450.867 714.566 450.2 714.566 449.6C714.566 448.933 714.166 448.433 713.366 448.1C710.966 447.1 709.532 445.833 709.066 444.3C708.599 442.7 709.166 441.233 710.766 439.9L717.966 433.7C718.766 433.033 718.732 432.467 717.866 432C715.132 430.667 712.966 428.6 711.366 425.8C709.766 423 708.966 420 708.966 416.8C708.966 413.733 709.632 410.967 710.966 408.5C712.299 406.033 714.099 404.067 716.366 402.6C718.632 401.133 721.166 400.4 723.966 400.4C725.566 400.4 727.099 400.667 728.566 401.2C729.499 401.533 730.066 401.233 730.266 400.3C730.866 397.767 731.966 395.8 733.566 394.4C735.232 392.933 736.866 392.2 738.466 392.2C739.999 392.2 741.232 392.667 742.166 393.6C743.166 394.467 743.666 395.567 743.666 396.9C743.666 398.033 743.332 398.933 742.666 399.6C741.999 400.267 741.166 400.6 740.166 400.6C739.299 400.6 738.666 400.433 738.266 400.1C737.866 399.767 737.499 399.433 737.166 399.1C736.832 398.767 736.299 398.6 735.566 398.6C733.966 398.6 732.966 399.467 732.566 401.2C732.366 401.867 732.366 402.433 732.566 402.9C732.832 403.367 733.199 403.833 733.666 404.3C735.266 405.833 736.499 407.7 737.366 409.9C738.299 412.1 738.766 414.533 738.766 417.2C738.766 420.4 738.099 423.267 736.766 425.8C735.499 428.333 733.732 430.333 731.466 431.8C729.266 433.267 726.766 434 723.966 434C722.766 434 721.732 434.267 720.866 434.8C719.999 435.267 719.132 435.967 718.266 436.9L716.566 438.8C715.699 439.867 715.432 440.9 715.766 441.9C716.166 442.833 717.099 443.3 718.566 443.3H727.166C731.966 443.3 735.766 444.5 738.566 446.9C741.366 449.233 742.766 452.467 742.766 456.6C742.766 459.867 741.832 462.767 739.966 465.3C738.099 467.833 735.599 469.833 732.466 471.3C729.399 472.767 725.932 473.5 722.066 473.5ZM723.866 431.5C726.266 431.5 728.166 430.2 729.566 427.6C730.966 425 731.666 421.467 731.666 417C731.666 412.667 730.932 409.2 729.466 406.6C728.066 403.933 726.199 402.6 723.866 402.6C721.532 402.6 719.632 403.933 718.166 406.6C716.766 409.2 716.066 412.667 716.066 417C716.066 421.467 716.766 425 718.166 427.6C719.566 430.2 721.466 431.5 723.866 431.5ZM723.266 471.3C725.666 471.3 727.866 470.767 729.866 469.7C731.866 468.633 733.432 467.133 734.566 465.2C735.766 463.333 736.366 461.2 736.366 458.8C736.366 455.8 735.466 453.5 733.666 451.9C731.932 450.233 729.466 449.4 726.266 449.4H723.966C721.899 449.4 720.332 449.6 719.266 450C718.266 450.4 717.299 451.1 716.366 452.1C714.299 454.3 712.999 456.067 712.466 457.4C711.932 458.733 711.666 460.1 711.666 461.5C711.666 464.433 712.666 466.8 714.666 468.6C716.732 470.4 719.599 471.3 723.266 471.3ZM762.7 452.9C759.5 452.9 756.633 451.833 754.1 449.7C751.567 447.567 749.533 444.567 748 440.7C746.533 436.767 745.8 432.233 745.8 427.1C745.8 421.833 746.567 417.2 748.1 413.2C749.633 409.2 751.733 406.067 754.4 403.8C757.067 401.533 760.033 400.4 763.3 400.4C767.233 400.4 770.4 402.033 772.8 405.3C775.267 408.5 776.5 413.733 776.5 421C776.5 423.2 775.667 424.3 774 424.3H755C753.667 424.3 753 425.067 753 426.6C753 433.667 754.033 438.967 756.1 442.5C758.167 446.033 760.8 447.8 764 447.8C766.533 447.8 768.6 446.9 770.2 445.1C771.8 443.3 773.1 440.267 774.1 436C774.3 435.267 774.733 434.9 775.4 434.9C776.2 434.9 776.5 435.567 776.3 436.9C775.233 442.833 773.533 447 771.2 449.4C768.867 451.733 766.033 452.9 762.7 452.9ZM754.7 421.8H764.8C768 421.8 769.6 420.133 769.6 416.8C769.6 412.467 769.067 409.067 768 406.6C766.933 404.133 765.333 402.9 763.2 402.9C760.6 402.9 758.4 404.4 756.6 407.4C754.867 410.4 753.733 414.667 753.2 420.2C753.067 421.267 753.567 421.8 754.7 421.8ZM802.539 445.3V406.2C802.539 404.6 801.739 403.8 800.139 403.8H797.839C797.039 403.8 796.639 403.467 796.639 402.8C796.639 402.133 797.039 401.767 797.839 401.7C800.972 401.367 802.539 400 802.539 397.6V397C802.539 393.533 803.039 390.3 804.039 387.3C805.106 384.3 806.606 381.867 808.539 380C810.539 378.133 812.972 377.2 815.839 377.2C818.506 377.2 820.739 377.967 822.539 379.5C824.339 381.033 825.239 382.867 825.239 385C825.239 386.267 824.906 387.233 824.239 387.9C823.639 388.5 822.806 388.8 821.739 388.8C820.406 388.8 819.439 388.367 818.839 387.5C818.306 386.633 817.872 385.667 817.539 384.6C817.206 383.467 816.772 382.467 816.239 381.6C815.772 380.733 814.906 380.3 813.639 380.3C812.306 380.3 811.239 381.067 810.439 382.6C809.706 384.067 809.339 386.867 809.339 391V399.8C809.339 400.6 809.739 401 810.539 401H819.139C820.139 401 820.639 401.467 820.639 402.4C820.639 403.333 820.139 403.8 819.139 403.8H810.539C809.739 403.8 809.339 404.2 809.339 405V445.3C809.339 446.7 809.539 447.667 809.939 448.2C810.406 448.733 811.339 449.067 812.739 449.2L818.039 449.7C818.772 449.833 819.139 450.2 819.139 450.8C819.139 451.6 818.639 452 817.639 452H796.839C795.839 452 795.339 451.633 795.339 450.9C795.339 450.167 795.772 449.767 796.639 449.7L799.139 449.5C800.539 449.367 801.439 449 801.839 448.4C802.306 447.733 802.539 446.7 802.539 445.3ZM834.806 407.4C837.54 402.733 840.84 400.4 844.706 400.4C846.906 400.4 848.54 401.067 849.606 402.4C850.673 403.667 851.206 405.1 851.206 406.7C851.206 407.967 850.873 409 850.206 409.8C849.606 410.6 848.64 411 847.306 411C846.24 411 845.44 410.767 844.906 410.3C844.44 409.767 844.04 409.167 843.706 408.5C843.44 407.833 843.106 407.267 842.706 406.8C842.306 406.267 841.64 406 840.706 406C839.506 406 838.373 406.733 837.306 408.2C836.24 409.6 835.34 411.5 834.606 413.9C833.94 416.3 833.606 419.033 833.606 422.1V445.3C833.606 446.7 833.806 447.7 834.206 448.3C834.673 448.9 835.606 449.267 837.006 449.4L839.706 449.7C840.44 449.833 840.806 450.2 840.806 450.8C840.806 451.6 840.306 452 839.306 452H822.406C821.406 452 820.906 451.633 820.906 450.9C820.906 450.3 821.34 449.9 822.206 449.7L823.406 449.5C824.806 449.233 825.706 448.833 826.106 448.3C826.573 447.7 826.806 446.7 826.806 445.3V411.7C826.806 410.5 826.606 409.7 826.206 409.3C825.873 408.833 825.24 408.533 824.306 408.4L822.206 408.1C821.34 408.033 820.906 407.667 820.906 407C820.906 406.467 821.44 406.1 822.506 405.9C824.573 405.567 826.14 405.033 827.206 404.3C828.34 403.567 829.506 402.667 830.706 401.6C831.306 401 831.806 400.7 832.206 400.7C832.806 400.7 833.106 401.1 833.106 401.9V407.3C833.106 407.767 833.306 408.067 833.706 408.2C834.106 408.267 834.473 408 834.806 407.4ZM870.542 452.9C867.142 452.9 864.076 451.767 861.342 449.5C858.676 447.167 856.542 444 854.942 440C853.342 436 852.542 431.533 852.542 426.6C852.542 421.667 853.342 417.233 854.942 413.3C856.542 409.367 858.709 406.233 861.442 403.9C864.176 401.567 867.209 400.4 870.542 400.4C873.942 400.4 876.976 401.567 879.642 403.9C882.376 406.233 884.542 409.367 886.142 413.3C887.742 417.233 888.542 421.667 888.542 426.6C888.542 431.533 887.742 436 886.142 440C884.609 444 882.476 447.167 879.742 449.5C877.009 451.767 873.942 452.9 870.542 452.9ZM870.542 450.4C877.476 450.4 880.942 442.467 880.942 426.6C880.942 410.8 877.476 402.9 870.542 402.9C863.609 402.9 860.142 410.8 860.142 426.6C860.142 442.467 863.609 450.4 870.542 450.4ZM893.063 452C892.063 452 891.563 451.633 891.563 450.9C891.563 450.3 891.996 449.9 892.863 449.7L894.063 449.5C895.463 449.233 896.363 448.833 896.763 448.3C897.229 447.7 897.463 446.7 897.463 445.3V411.7C897.463 410.5 897.263 409.7 896.863 409.3C896.529 408.833 895.896 408.533 894.963 408.4L892.863 408.1C891.996 408.033 891.563 407.667 891.563 407C891.563 406.467 892.096 406.1 893.163 405.9C895.229 405.567 896.796 405.033 897.863 404.3C898.996 403.567 900.163 402.667 901.363 401.6C901.963 401 902.463 400.7 902.863 400.7C903.463 400.7 903.763 401.1 903.763 401.9V406.4C903.763 406.867 903.963 407.233 904.363 407.5C904.763 407.7 905.196 407.567 905.663 407.1C908.396 404.5 910.763 402.733 912.763 401.8C914.829 400.867 916.896 400.4 918.963 400.4C920.896 400.4 922.596 400.933 924.063 402C925.596 403 926.729 404.533 927.463 406.6C927.663 407.133 927.996 407.467 928.463 407.6C928.996 407.667 929.496 407.467 929.963 407C932.696 404.467 935.063 402.733 937.063 401.8C939.063 400.867 941.096 400.4 943.163 400.4C945.963 400.4 948.229 401.467 949.963 403.6C951.763 405.667 952.663 408.733 952.663 412.8V445.3C952.663 446.7 952.863 447.7 953.263 448.3C953.729 448.833 954.663 449.2 956.063 449.4L958.263 449.7C958.996 449.833 959.363 450.233 959.363 450.9C959.363 451.633 958.963 452 958.163 452H941.063C940.129 452 939.663 451.633 939.663 450.9C939.663 450.233 940.029 449.833 940.763 449.7L942.163 449.5C943.696 449.3 944.696 448.9 945.162 448.3C945.629 447.7 945.863 446.7 945.863 445.3V413.9C945.863 410.633 945.263 408.333 944.063 407C942.929 405.667 941.363 405 939.363 405C937.363 405 935.529 405.633 933.863 406.9C932.263 408.1 930.963 409.733 929.963 411.8C928.963 413.8 928.463 416.033 928.463 418.5V445.3C928.463 446.7 928.696 447.7 929.163 448.3C929.629 448.833 930.596 449.2 932.063 449.4L934.263 449.7C934.996 449.833 935.363 450.233 935.363 450.9C935.363 451.633 934.963 452 934.163 452H917.163C916.229 452 915.762 451.633 915.762 450.9C915.762 450.233 916.129 449.833 916.863 449.7L918.263 449.5C919.663 449.3 920.563 448.9 920.963 448.3C921.429 447.7 921.663 446.7 921.663 445.3V413.9C921.663 410.633 921.063 408.333 919.863 407C918.729 405.667 917.163 405 915.163 405C913.163 405 911.329 405.633 909.663 406.9C908.063 408.1 906.763 409.733 905.763 411.8C904.763 413.8 904.263 416.033 904.263 418.5V445.3C904.263 446.7 904.463 447.7 904.863 448.3C905.329 448.9 906.263 449.267 907.663 449.4L910.363 449.7C911.096 449.833 911.463 450.2 911.463 450.8C911.463 451.6 910.963 452 909.963 452H893.063ZM992.565 452.9C990.898 452.9 989.298 452.533 987.765 451.8C986.232 451.067 984.965 449.9 983.965 448.3C982.965 446.7 982.465 444.567 982.465 441.9V407.1C982.465 405.9 982.265 405.067 981.865 404.6C981.532 404.133 980.898 403.867 979.965 403.8L978.265 403.6C977.132 403.467 976.565 403.033 976.565 402.3C976.565 401.433 977.198 401 978.465 401H987.765C988.765 401 989.265 401.5 989.265 402.5V439.8C989.265 442.867 989.832 445.067 990.965 446.4C992.165 447.667 993.798 448.3 995.865 448.3C997.932 448.3 999.765 447.733 1001.36 446.6C1002.96 445.4 1004.23 443.833 1005.16 441.9C1006.16 439.9 1006.66 437.733 1006.66 435.4V407.1C1006.66 405.9 1006.46 405.067 1006.06 404.6C1005.73 404.133 1005.1 403.867 1004.16 403.8L1002.46 403.6C1001.33 403.467 1000.76 403.033 1000.76 402.3C1000.76 401.433 1001.4 401 1002.66 401H1011.96C1012.96 401 1013.46 401.5 1013.46 402.5V441.3C1013.46 442.5 1013.63 443.333 1013.96 443.8C1014.36 444.2 1015.03 444.467 1015.96 444.6L1018.06 444.9C1018.93 444.967 1019.36 445.3 1019.36 445.9C1019.36 446.5 1018.83 446.9 1017.76 447.1C1015.7 447.367 1014.03 447.9 1012.76 448.7C1011.56 449.5 1010.5 450.467 1009.56 451.6C1008.96 452.2 1008.46 452.5 1008.06 452.5C1007.46 452.5 1007.16 452.1 1007.16 451.3V446.7C1007.16 446.167 1006.96 445.867 1006.56 445.8C1006.23 445.667 1005.86 445.8 1005.46 446.2C1003 448.667 1000.8 450.4 998.865 451.4C996.998 452.4 994.898 452.9 992.565 452.9ZM1032.98 452.9C1031.44 452.9 1029.81 452.7 1028.08 452.3C1026.34 451.967 1024.94 451.533 1023.88 451C1023.28 450.667 1022.98 450.1 1022.98 449.3L1022.68 438.1C1022.68 436.967 1023.11 436.4 1023.98 436.4C1024.71 436.4 1025.21 436.933 1025.48 438C1026.61 442.733 1027.98 445.967 1029.58 447.7C1031.24 449.433 1033.24 450.3 1035.58 450.3C1037.51 450.3 1039.11 449.567 1040.38 448.1C1041.64 446.567 1042.28 444.467 1042.28 441.8C1042.28 439.133 1041.54 436.767 1040.08 434.7C1038.61 432.633 1036.14 430.367 1032.68 427.9C1029.21 425.567 1026.68 423.233 1025.08 420.9C1023.48 418.5 1022.68 415.9 1022.68 413.1C1022.68 409.3 1024.01 406.233 1026.68 403.9C1029.34 401.567 1032.88 400.4 1037.28 400.4C1038.61 400.4 1039.91 400.567 1041.18 400.9C1042.44 401.167 1043.58 401.633 1044.58 402.3C1045.18 402.7 1045.48 403.233 1045.48 403.9L1045.68 414.9C1045.68 415.9 1045.28 416.4 1044.48 416.4C1044.01 416.4 1043.68 416.267 1043.48 416C1043.28 415.667 1043.11 415.267 1042.98 414.8C1041.64 410.467 1040.31 407.467 1038.98 405.8C1037.64 404.067 1036.01 403.2 1034.08 403.2C1032.34 403.2 1030.91 403.8 1029.78 405C1028.64 406.2 1028.08 407.7 1028.08 409.5C1028.08 411.833 1028.78 413.867 1030.18 415.6C1031.58 417.333 1034.11 419.467 1037.78 422C1041.11 424.4 1043.61 427 1045.28 429.8C1047.01 432.533 1047.88 435.533 1047.88 438.8C1047.88 443.067 1046.51 446.5 1043.78 449.1C1041.04 451.633 1037.44 452.9 1032.98 452.9ZM1111.33 398.7C1111.73 398.567 1112.06 398.6 1112.33 398.8C1112.6 399 1112.73 399.3 1112.73 399.7V400.9C1112.73 401.567 1112.4 402 1111.73 402.2L1076.33 415.4L1111.73 428.6C1112.4 428.8 1112.73 429.233 1112.73 429.9V431.1C1112.73 431.5 1112.6 431.8 1112.33 432C1112.06 432.2 1111.73 432.233 1111.33 432.1L1072.63 417.5C1071.96 417.233 1071.63 416.767 1071.63 416.1V414.7C1071.63 414.033 1071.96 413.567 1072.63 413.3L1111.33 398.7ZM1131.25 452.9C1127.79 452.9 1124.99 452.267 1122.85 451C1120.79 449.733 1119.75 448.067 1119.75 446C1119.75 444.867 1120.09 444 1120.75 443.4C1121.42 442.733 1122.29 442.4 1123.35 442.4C1124.62 442.4 1125.45 442.8 1125.85 443.6C1126.25 444.4 1126.55 445.3 1126.75 446.3C1126.95 447.3 1127.39 448.2 1128.05 449C1128.79 449.8 1130.05 450.2 1131.85 450.2C1135.65 450.2 1138.72 448.433 1141.05 444.9C1143.45 441.3 1144.65 436.6 1144.65 430.8C1144.65 417.933 1140.99 411.5 1133.65 411.5C1130.99 411.5 1128.72 412.133 1126.85 413.4C1125.79 414.2 1124.99 414.3 1124.45 413.7C1124.05 413.033 1124.32 412.233 1125.25 411.3L1132.45 404.5C1135.39 401.767 1137.52 399.267 1138.85 397C1140.19 394.733 1140.85 392.467 1140.85 390.2C1140.85 387.733 1140.29 385.833 1139.15 384.5C1138.09 383.1 1136.59 382.4 1134.65 382.4C1132.12 382.4 1129.99 383.333 1128.25 385.2C1126.52 387.067 1125.39 389.633 1124.85 392.9C1124.72 393.9 1124.22 394.4 1123.35 394.4C1122.42 394.4 1122.02 393.8 1122.15 392.6C1122.62 388.467 1124.15 385.167 1126.75 382.7C1129.42 380.233 1132.69 379 1136.55 379C1139.89 379 1142.55 379.933 1144.55 381.8C1146.62 383.6 1147.65 386.033 1147.65 389.1C1147.65 394.367 1143.35 399.967 1134.75 405.9L1132.45 407.5C1132.19 407.7 1132.09 407.933 1132.15 408.2C1132.29 408.4 1132.52 408.467 1132.85 408.4C1133.99 408.067 1135.12 407.9 1136.25 407.9C1139.32 407.9 1142.02 408.767 1144.35 410.5C1146.69 412.233 1148.52 414.667 1149.85 417.8C1151.19 420.867 1151.85 424.4 1151.85 428.4C1151.85 431.6 1151.29 434.667 1150.15 437.6C1149.02 440.533 1147.49 443.167 1145.55 445.5C1143.62 447.767 1141.42 449.567 1138.95 450.9C1136.49 452.233 1133.92 452.9 1131.25 452.9Z" fill="black"/>
</svg>
